<svg width="19" height="19" viewBox="0 0 19 19" fill="none" xmlns="http://www.w3.org/2000/svg">
<path d="M10.0534 18.9999H8.93969C8.62156 18.9602 8.30168 18.931 7.98589 18.8785C6.00125 18.5471 4.27111 17.6936 2.84801 16.2712C0.712774 14.1381 -0.227011 11.546 0.0461685 8.54422C0.229456 6.52905 1.01806 4.74842 2.36644 3.235C4.15612 1.22508 6.40869 0.142817 9.09729 0.0115448C10.9716 -0.0794704 12.7344 0.357519 14.3391 1.33535C16.8059 2.83943 18.3194 5.01796 18.8524 7.86394C18.9189 8.22041 18.9522 8.58272 19.0006 8.94212V10.0553C18.9855 10.1889 18.9703 10.3225 18.9551 10.4555C18.7275 12.4999 17.9464 14.3033 16.5683 15.8324C15.1049 17.4561 13.2913 18.4695 11.1339 18.8511C10.7761 18.9141 10.4142 18.9503 10.054 18.9987L10.0534 18.9999ZM8.01916 11.0641C7.97947 11.0302 7.9462 11.004 7.91468 10.9748C7.44479 10.5448 6.97606 10.1131 6.505 9.68424C6.13492 9.34702 5.77711 8.99346 5.38718 8.68132C4.82389 8.23033 4.00144 8.58564 3.91563 9.30093C3.87244 9.66324 4.01895 9.94737 4.28221 10.1866C5.30371 11.1136 6.3223 12.043 7.34205 12.9719C7.83879 13.4246 8.33787 13.4164 8.81302 12.9456C10.7801 10.9946 12.7473 9.04247 14.7138 7.09089C14.7664 7.03897 14.8183 6.98529 14.8656 6.92811C15.2473 6.46779 15.1242 5.78926 14.6052 5.49054C14.1972 5.25542 13.7594 5.33301 13.3794 5.71283C11.6423 7.44795 9.90632 9.18424 8.16918 10.9205C8.1219 10.9678 8.07287 11.0127 8.01858 11.0641H8.01916Z" fill="#B8C0E2"/>
</svg>
