<svg width="18" height="18" viewBox="0 0 18 18" fill="none" xmlns="http://www.w3.org/2000/svg">
<path d="M17.1038 7.96377C17.0804 7.03805 16.8561 6.15877 16.5104 5.30918C15.9681 3.97561 15.1374 2.84576 14.0268 1.92924C12.8618 0.967968 11.5327 0.352635 10.0429 0.0853351C9.75837 0.0343014 9.47004 0.0389028 9.18548 0H9.11853C9.09635 0.0242619 9.06664 0.0150591 9.03943 0.0171507C9.01809 0.0171507 8.99675 0.0171507 8.97541 0.0171507C8.93398 0.010876 8.88878 0.0322098 8.85112 0H8.24978C8.21211 0.0322098 8.16692 0.010876 8.12549 0.0171507C8.10415 0.0171507 8.08281 0.0171507 8.06146 0.0171507C8.03426 0.0150591 8.00497 0.0242619 7.98237 0H7.88236C7.70785 0.0313732 7.52958 0.0179873 7.35508 0.0409943C6.25324 0.186148 5.22798 0.557188 4.26424 1.10224C3.36829 1.60924 2.59788 2.26975 1.94213 3.05993C0.973787 4.22702 0.354865 5.56017 0.0862054 7.0552C0.038918 7.31748 0.0401734 7.58353 0 7.84581V7.97925C0.0242714 8.00142 0.015065 8.03112 0.0171574 8.05831C0.0171574 8.07964 0.0171574 8.10098 0.0171574 8.12231C0.0108803 8.16372 0.0322224 8.2089 0 8.24655V8.84766C0.0322224 8.88531 0.0108803 8.93048 0.0171574 8.9719C0.0171574 8.99323 0.0171574 9.01456 0.0171574 9.0359C0.015065 9.06309 0.0242714 9.09237 0 9.11496V9.2484C0.0305485 9.4061 0.0184128 9.56757 0.038918 9.72569C0.133074 10.4523 0.323898 11.1542 0.60846 11.8289C1.08343 12.9555 1.75801 13.9422 2.64935 14.786C3.39005 15.4875 4.22616 16.0346 5.15893 16.437C6.05991 16.8261 6.99519 17.0704 7.98405 17.098C8.55693 17.1139 9.1315 17.1394 9.69811 17.0603C11.8156 16.7646 13.5916 15.8087 15.0085 14.2129C16.0346 13.0575 16.687 11.706 16.9887 10.1879C17.1352 9.4517 17.1231 8.7092 17.1042 7.96377H17.1038ZM8.55694 4.2747C9.14447 4.27972 9.62906 4.77375 9.61818 5.35687C9.6073 5.93874 9.12187 6.41394 8.54396 6.40933C7.95643 6.40431 7.47183 5.91029 7.48272 5.32717C7.4936 4.7453 7.97902 4.2701 8.55694 4.2747ZM10.1618 12.8178C9.08798 12.8229 8.01376 12.8229 6.93996 12.8178C6.63907 12.8166 6.41184 12.5744 6.41352 12.2837C6.41519 11.9925 6.64284 11.7633 6.9454 11.7537C7.08977 11.7491 7.23498 11.7482 7.37935 11.7537C7.45761 11.7566 7.48313 11.7352 7.48313 11.6528C7.4802 10.6514 7.47979 9.65039 7.48397 8.64896C7.48439 8.54982 7.44254 8.54313 7.36638 8.54522C7.22745 8.54899 7.08809 8.54941 6.94916 8.54522C6.64535 8.53602 6.41686 8.3093 6.41352 8.01857C6.41017 7.72073 6.64158 7.48188 6.95293 7.47979C7.65973 7.47519 8.36653 7.47519 9.07291 7.47979C9.39388 7.48188 9.61525 7.70693 9.61735 8.03028C9.62111 8.63097 9.6186 9.23167 9.6186 9.83236C9.6186 10.4276 9.62153 11.0229 9.61609 11.6177C9.61525 11.7265 9.64287 11.762 9.75251 11.7541C9.88517 11.7445 10.0195 11.7486 10.153 11.7528C10.456 11.7629 10.6845 11.9908 10.6865 12.2816C10.6886 12.5727 10.4622 12.8157 10.1614 12.8174L10.1618 12.8178Z" fill="#18204E"/>
</svg>
