<svg width="19" height="19" viewBox="0 0 19 19" fill="none" xmlns="http://www.w3.org/2000/svg">
<path d="M10.0534 18.9998H8.93969C8.62156 18.9601 8.30168 18.931 7.98589 18.8785C6.00125 18.5471 4.27111 17.6935 2.84801 16.2711C0.712774 14.1381 -0.227011 11.5459 0.0461685 8.54416C0.229456 6.52899 1.01806 4.74836 2.36644 3.23494C4.15612 1.22502 6.40869 0.142756 9.09729 0.0114837C10.9716 -0.0795314 12.7344 0.357458 14.3391 1.33529C16.8059 2.83937 18.3194 5.0179 18.8524 7.86388C18.9189 8.22035 18.9522 8.58266 19.0006 8.94206V10.0552C18.9855 10.1888 18.9703 10.3225 18.9551 10.4555C18.7275 12.4998 17.9464 14.3032 16.5683 15.8324C15.1049 17.4561 13.2913 18.4695 11.1339 18.851C10.7761 18.914 10.4142 18.9502 10.054 18.9986L10.0534 18.9998ZM8.01916 11.064C7.97947 11.0302 7.9462 11.0039 7.91468 10.9747C7.44479 10.5447 6.97606 10.113 6.505 9.68418C6.13492 9.34696 5.77711 8.9934 5.38718 8.68126C4.82389 8.23027 4.00144 8.58558 3.91563 9.30087C3.87244 9.66318 4.01895 9.94731 4.28221 10.1865C5.30371 11.1136 6.3223 12.043 7.34205 12.9718C7.83879 13.4246 8.33787 13.4164 8.81302 12.9456C10.7801 10.9946 12.7473 9.04241 14.7138 7.09083C14.7664 7.03891 14.8183 6.98523 14.8656 6.92805C15.2473 6.46773 15.1242 5.7892 14.6052 5.49048C14.1972 5.25536 13.7594 5.33295 13.3794 5.71277C11.6423 7.44789 9.90632 9.18418 8.16918 10.9205C8.1219 10.9677 8.07287 11.0127 8.01858 11.064H8.01916Z" fill="#FFBE87"/>
</svg>
